<svg viewBox="0 0 11.25 18.4004" xmlns="http://www.w3.org/2000/svg" xmlns:xlink="http://www.w3.org/1999/xlink" width="11.250000" height="18.400391" fill="none" customFrame="#000000">
	<rect id="variant=1" width="11.250000" height="18.400000" x="0.000000" y="0.000000" transform="matrix(1,0,0,-1,0,18.4004)" />
	<path id="Vector" d="M11.0742 5.23828L6.01172 0.175781C5.89453 0.0585938 5.76562 0 5.625 0C5.48438 0 5.35547 0.0585938 5.23828 0.175781L0.175781 5.23828C-0.0585938 5.49609 -0.0585938 5.75391 0.175781 6.01172C0.433594 6.24609 0.691406 6.24609 0.949219 6.01172L5.0625 1.93359L5.0625 17.4375C5.08594 17.7891 5.27344 17.9766 5.625 18C5.97656 17.9766 6.16406 17.7891 6.1875 17.4375L6.1875 1.93359L10.3008 6.01172C10.5586 6.24609 10.8164 6.24609 11.0742 6.01172C11.3086 5.75391 11.3086 5.49609 11.0742 5.23828Z" fill="rgb(255,255,255)" fill-rule="evenodd" transform="matrix(1,0,0,-1,0,18.2012)" />
</svg>
